<svg width="133" height="23" viewBox="0 0 133 23" fill="none" xmlns="http://www.w3.org/2000/svg">
<path d="M7.58 22.3C6.46 22.3 5.46 22.16 4.58 21.88C3.7 21.58 2.95 21.19 2.33 20.71C1.73 20.23 1.26 19.69 0.92 19.09C0.6 18.47 0.43 17.83 0.41 17.17C0.41 16.99 0.47 16.85 0.59 16.75C0.71 16.65 0.86 16.6 1.04 16.6H1.46C1.62 16.6 1.77 16.64 1.91 16.72C2.07 16.8 2.19 16.99 2.27 17.29C2.49 18.15 2.88 18.82 3.44 19.3C4.02 19.76 4.67 20.08 5.39 20.26C6.13 20.42 6.86 20.5 7.58 20.5C9.12 20.5 10.38 20.13 11.36 19.39C12.36 18.65 12.86 17.54 12.86 16.06C12.86 14.58 12.41 13.52 11.51 12.88C10.63 12.24 9.42 11.92 7.88 11.92H5.24C5.04 11.92 4.88 11.86 4.76 11.74C4.64 11.62 4.58 11.46 4.58 11.26V10.81C4.58 10.65 4.6 10.52 4.64 10.42C4.7 10.3 4.77 10.19 4.85 10.09L11.03 2.8H1.97C1.77 2.8 1.61 2.74 1.49 2.62C1.37 2.5 1.31 2.34 1.31 2.14V1.69C1.31 1.47 1.37 1.3 1.49 1.18C1.61 1.06 1.77 0.999999 1.97 0.999999H13.16C13.38 0.999999 13.55 1.06 13.67 1.18C13.79 1.3 13.85 1.47 13.85 1.69V2.14C13.85 2.26 13.82 2.37 13.76 2.47C13.72 2.55 13.67 2.63 13.61 2.71L7.28 10.12H7.88C9.26 10.12 10.46 10.34 11.48 10.78C12.52 11.2 13.32 11.85 13.88 12.73C14.46 13.61 14.75 14.72 14.75 16.06C14.75 17.38 14.44 18.51 13.82 19.45C13.2 20.37 12.35 21.08 11.27 21.58C10.19 22.06 8.96 22.3 7.58 22.3ZM19.7652 22C19.5652 22 19.4052 21.94 19.2852 21.82C19.1652 21.7 19.1052 21.54 19.1052 21.34V1.69C19.1052 1.47 19.1652 1.3 19.2852 1.18C19.4052 1.06 19.5652 0.999999 19.7652 0.999999H26.1552C28.2752 0.999999 29.9352 1.31 31.1352 1.93C32.3352 2.55 33.1852 3.47 33.6852 4.69C34.2052 5.89 34.4752 7.36 34.4952 9.1C34.5152 10 34.5252 10.8 34.5252 11.5C34.5252 12.18 34.5152 12.97 34.4952 13.87C34.4552 15.71 34.1852 17.23 33.6852 18.43C33.1852 19.63 32.3452 20.53 31.1652 21.13C29.9852 21.71 28.3652 22 26.3052 22H19.7652ZM20.9952 20.2H26.1552C27.7552 20.2 29.0152 19.99 29.9352 19.57C30.8752 19.13 31.5452 18.44 31.9452 17.5C32.3652 16.54 32.5852 15.28 32.6052 13.72C32.6252 13.12 32.6352 12.6 32.6352 12.16C32.6352 11.7 32.6352 11.25 32.6352 10.81C32.6352 10.37 32.6252 9.85 32.6052 9.25C32.5652 7.05 32.0552 5.43 31.0752 4.39C30.0952 3.33 28.4052 2.8 26.0052 2.8H20.9952V20.2ZM46.5179 22.3C44.5179 22.3 42.8579 22.02 41.5379 21.46C40.2179 20.88 39.2179 20.13 38.5379 19.21C37.8579 18.29 37.4979 17.31 37.4579 16.27C37.4579 16.11 37.5179 15.97 37.6379 15.85C37.7779 15.71 37.9379 15.64 38.1179 15.64H41.8979C42.1779 15.64 42.3879 15.69 42.5279 15.79C42.6879 15.89 42.8279 16.02 42.9479 16.18C43.1079 16.48 43.3279 16.77 43.6079 17.05C43.9079 17.33 44.2879 17.56 44.7479 17.74C45.2279 17.9 45.8179 17.98 46.5179 17.98C47.6779 17.98 48.5479 17.8 49.1279 17.44C49.7279 17.08 50.0279 16.59 50.0279 15.97C50.0279 15.53 49.8679 15.17 49.5479 14.89C49.2279 14.59 48.7079 14.33 47.9879 14.11C47.2879 13.87 46.3479 13.63 45.1679 13.39C43.6479 13.07 42.3479 12.66 41.2679 12.16C40.2079 11.64 39.3979 10.97 38.8379 10.15C38.2779 9.31 37.9979 8.27 37.9979 7.03C37.9979 5.81 38.3379 4.72 39.0179 3.76C39.7179 2.8 40.6879 2.05 41.9279 1.51C43.1679 0.969999 44.6379 0.699999 46.3379 0.699999C47.7179 0.699999 48.9279 0.879999 49.9679 1.24C51.0279 1.6 51.9179 2.08 52.6379 2.68C53.3579 3.28 53.8979 3.92 54.2579 4.6C54.6379 5.26 54.8379 5.91 54.8579 6.55C54.8579 6.71 54.7979 6.86 54.6779 7C54.5579 7.12 54.4079 7.18 54.2279 7.18H50.2679C50.0479 7.18 49.8579 7.14 49.6979 7.06C49.5379 6.98 49.3979 6.85 49.2779 6.67C49.1579 6.23 48.8379 5.85 48.3179 5.53C47.8179 5.19 47.1579 5.02 46.3379 5.02C45.4579 5.02 44.7679 5.18 44.2679 5.5C43.7879 5.8 43.5479 6.27 43.5479 6.91C43.5479 7.31 43.6779 7.66 43.9379 7.96C44.2179 8.26 44.6679 8.52 45.2879 8.74C45.9279 8.96 46.7979 9.19 47.8979 9.43C49.7179 9.77 51.1879 10.2 52.3079 10.72C53.4279 11.22 54.2479 11.88 54.7679 12.7C55.2879 13.5 55.5479 14.51 55.5479 15.73C55.5479 17.09 55.1579 18.27 54.3779 19.27C53.6179 20.25 52.5579 21 51.1979 21.52C49.8379 22.04 48.2779 22.3 46.5179 22.3ZM66.2012 22C64.9212 22 63.8112 21.8 62.8712 21.4C61.9512 20.98 61.2412 20.34 60.7412 19.48C60.2412 18.6 59.9912 17.47 59.9912 16.09V10.33H57.6512C57.4312 10.33 57.2412 10.26 57.0812 10.12C56.9412 9.98 56.8712 9.8 56.8712 9.58V7.15C56.8712 6.93 56.9412 6.75 57.0812 6.61C57.2412 6.47 57.4312 6.4 57.6512 6.4H59.9912V1.45C59.9912 1.23 60.0612 1.05 60.2012 0.91C60.3612 0.769999 60.5412 0.699999 60.7412 0.699999H64.2212C64.4412 0.699999 64.6212 0.769999 64.7612 0.91C64.9012 1.05 64.9712 1.23 64.9712 1.45V6.4H68.7212C68.9412 6.4 69.1212 6.47 69.2612 6.61C69.4012 6.75 69.4712 6.93 69.4712 7.15V9.58C69.4712 9.8 69.4012 9.98 69.2612 10.12C69.1212 10.26 68.9412 10.33 68.7212 10.33H64.9712V15.67C64.9712 16.35 65.1012 16.89 65.3612 17.29C65.6212 17.69 66.0612 17.89 66.6812 17.89H68.9912C69.2112 17.89 69.3912 17.96 69.5312 18.1C69.6712 18.24 69.7412 18.42 69.7412 18.64V21.25C69.7412 21.47 69.6712 21.65 69.5312 21.79C69.3912 21.93 69.2112 22 68.9912 22H66.2012ZM72.9751 22C72.7551 22 72.5751 21.93 72.4351 21.79C72.2951 21.65 72.2251 21.47 72.2251 21.25V7.15C72.2251 6.95 72.2951 6.78 72.4351 6.64C72.5751 6.48 72.7551 6.4 72.9751 6.4H76.4251C76.6451 6.4 76.8251 6.48 76.9651 6.64C77.1051 6.78 77.1751 6.95 77.1751 7.15V8.35C77.7151 7.73 78.3551 7.25 79.0951 6.91C79.8551 6.57 80.7051 6.4 81.6451 6.4H82.9651C83.1651 6.4 83.3351 6.47 83.4751 6.61C83.6351 6.75 83.7151 6.93 83.7151 7.15V10.24C83.7151 10.44 83.6351 10.62 83.4751 10.78C83.3351 10.92 83.1651 10.99 82.9651 10.99H80.0551C79.2351 10.99 78.5951 11.22 78.1351 11.68C77.6951 12.12 77.4751 12.75 77.4751 13.57V21.25C77.4751 21.47 77.3951 21.65 77.2351 21.79C77.0951 21.93 76.9151 22 76.6951 22H72.9751ZM92.9309 22.3C90.5709 22.3 88.6909 21.66 87.2909 20.38C85.8909 19.1 85.1609 17.2 85.1009 14.68C85.1009 14.54 85.1009 14.36 85.1009 14.14C85.1009 13.92 85.1009 13.75 85.1009 13.63C85.1609 12.05 85.5109 10.7 86.1509 9.58C86.8109 8.44 87.7109 7.58 88.8509 7C90.0109 6.4 91.3609 6.1 92.9009 6.1C94.6609 6.1 96.1109 6.45 97.2509 7.15C98.4109 7.85 99.2809 8.8 99.8609 10C100.441 11.2 100.731 12.57 100.731 14.11V14.83C100.731 15.05 100.651 15.23 100.491 15.37C100.351 15.51 100.181 15.58 99.9809 15.58H90.3809C90.3809 15.6 90.3809 15.63 90.3809 15.67C90.3809 15.71 90.3809 15.75 90.3809 15.79C90.4009 16.37 90.5009 16.9 90.6809 17.38C90.8609 17.86 91.1409 18.24 91.5209 18.52C91.9009 18.8 92.3609 18.94 92.9009 18.94C93.3009 18.94 93.6309 18.88 93.8909 18.76C94.1709 18.62 94.4009 18.47 94.5809 18.31C94.7609 18.13 94.9009 17.98 95.0009 17.86C95.1809 17.66 95.3209 17.54 95.4209 17.5C95.5409 17.44 95.7209 17.41 95.9609 17.41H99.6809C99.8809 17.41 100.041 17.47 100.161 17.59C100.301 17.69 100.361 17.84 100.341 18.04C100.321 18.38 100.151 18.79 99.8309 19.27C99.5109 19.75 99.0409 20.23 98.4209 20.71C97.8209 21.17 97.0609 21.55 96.1409 21.85C95.2209 22.15 94.1509 22.3 92.9309 22.3ZM90.3809 12.61H95.4509V12.55C95.4509 11.91 95.3509 11.35 95.1509 10.87C94.9709 10.39 94.6809 10.02 94.2809 9.76C93.9009 9.5 93.4409 9.37 92.9009 9.37C92.3609 9.37 91.9009 9.5 91.5209 9.76C91.1609 10.02 90.8809 10.39 90.6809 10.87C90.4809 11.35 90.3809 11.91 90.3809 12.55V12.61ZM110.743 22.3C108.383 22.3 106.503 21.66 105.103 20.38C103.703 19.1 102.973 17.2 102.913 14.68C102.913 14.54 102.913 14.36 102.913 14.14C102.913 13.92 102.913 13.75 102.913 13.63C102.973 12.05 103.323 10.7 103.963 9.58C104.623 8.44 105.523 7.58 106.663 7C107.823 6.4 109.173 6.1 110.713 6.1C112.473 6.1 113.923 6.45 115.063 7.15C116.223 7.85 117.093 8.8 117.673 10C118.253 11.2 118.543 12.57 118.543 14.11V14.83C118.543 15.05 118.463 15.23 118.303 15.37C118.163 15.51 117.993 15.58 117.793 15.58H108.193C108.193 15.6 108.193 15.63 108.193 15.67C108.193 15.71 108.193 15.75 108.193 15.79C108.213 16.37 108.313 16.9 108.493 17.38C108.673 17.86 108.953 18.24 109.333 18.52C109.713 18.8 110.173 18.94 110.713 18.94C111.113 18.94 111.443 18.88 111.703 18.76C111.983 18.62 112.213 18.47 112.393 18.31C112.573 18.13 112.713 17.98 112.813 17.86C112.993 17.66 113.133 17.54 113.233 17.5C113.353 17.44 113.533 17.41 113.773 17.41H117.493C117.693 17.41 117.853 17.47 117.973 17.59C118.113 17.69 118.173 17.84 118.153 18.04C118.133 18.38 117.963 18.79 117.643 19.27C117.323 19.75 116.853 20.23 116.233 20.71C115.633 21.17 114.873 21.55 113.953 21.85C113.033 22.15 111.963 22.3 110.743 22.3ZM108.193 12.61H113.263V12.55C113.263 11.91 113.163 11.35 112.963 10.87C112.783 10.39 112.493 10.02 112.093 9.76C111.713 9.5 111.253 9.37 110.713 9.37C110.173 9.37 109.713 9.5 109.333 9.76C108.973 10.02 108.693 10.39 108.493 10.87C108.293 11.35 108.193 11.91 108.193 12.55V12.61ZM129.307 22C128.027 22 126.917 21.8 125.977 21.4C125.057 20.98 124.347 20.34 123.847 19.48C123.347 18.6 123.097 17.47 123.097 16.09V10.33H120.757C120.537 10.33 120.347 10.26 120.187 10.12C120.047 9.98 119.977 9.8 119.977 9.58V7.15C119.977 6.93 120.047 6.75 120.187 6.61C120.347 6.47 120.537 6.4 120.757 6.4H123.097V1.45C123.097 1.23 123.167 1.05 123.307 0.91C123.467 0.769999 123.647 0.699999 123.847 0.699999H127.327C127.547 0.699999 127.727 0.769999 127.867 0.91C128.007 1.05 128.077 1.23 128.077 1.45V6.4H131.827C132.047 6.4 132.227 6.47 132.367 6.61C132.507 6.75 132.577 6.93 132.577 7.15V9.58C132.577 9.8 132.507 9.98 132.367 10.12C132.227 10.26 132.047 10.33 131.827 10.33H128.077V15.67C128.077 16.35 128.207 16.89 128.467 17.29C128.727 17.69 129.167 17.89 129.787 17.89H132.097C132.317 17.89 132.497 17.96 132.637 18.1C132.777 18.24 132.847 18.42 132.847 18.64V21.25C132.847 21.47 132.777 21.65 132.637 21.79C132.497 21.93 132.317 22 132.097 22H129.307Z" fill="white"/>
</svg>
