<?xml version="1.0" encoding="UTF-8" standalone="no" ?>
<!DOCTYPE svg PUBLIC "-//W3C//DTD SVG 1.1//EN" "http://www.w3.org/Graphics/SVG/1.1/DTD/svg11.dtd">
<svg xmlns="http://www.w3.org/2000/svg" xmlns:xlink="http://www.w3.org/1999/xlink" version="1.1" width="15" height="15" viewBox="0.75 0.75 16.5 16.5" xml:space="preserve">
<desc>Created with Fabric.js 4.6.0</desc>
<defs>
</defs>
<g transform="matrix(1 0 0 1 9 9)" id="Zr4l5B5xtjRre5_wd0XeJ"  >
<g style="" vector-effect="non-scaling-stroke"   >
		<g transform="matrix(1 0 0 1 0 0)" id="AxIJp93RF6BxfZ1vap80i"  >
<path style="stroke: rgb(219,219,219); stroke-width: 1.5; stroke-dasharray: none; stroke-linecap: round; stroke-dashoffset: 0; stroke-linejoin: round; stroke-miterlimit: 4; fill: none; fill-rule: nonzero; opacity: 1;" vector-effect="non-scaling-stroke"  transform=" translate(-4.17, -3.33)" d="M 1.25 3.5 L 3.08333 5.33333 L 7.08333 1.33333" stroke-linecap="round" />
</g>
		<g transform="matrix(1 0 0 1 0 0)" id="Szk85YmxWsop8gGHOr0iX"  >
<path style="stroke: rgb(219,219,219); stroke-width: 1.5; stroke-dasharray: none; stroke-linecap: round; stroke-dashoffset: 0; stroke-linejoin: round; stroke-miterlimit: 4; fill: none; fill-rule: evenodd; opacity: 1;" vector-effect="non-scaling-stroke"  transform=" translate(-9, -9)" d="M 14.8333 16.5 L 3.16667 16.5 C 2.25 16.5 1.5 15.75 1.5 14.8333 L 1.5 3.16667 C 1.5 2.25 2.25 1.5 3.16667 1.5 L 14.8333 1.5 C 15.75 1.5 16.5 2.25 16.5 3.16667 L 16.5 14.8333 C 16.5 15.75 15.75 16.5 14.8333 16.5 Z" stroke-linecap="round" />
</g>
</g>
</g>
</svg>