<?xml version="1.0" encoding="utf-8"?>
<svg width="40" height="41" viewBox="0 0 40 41" fill="none" xmlns="http://www.w3.org/2000/svg">
  <path d="M0 12.5C0 5.87258 5.37258 0.5 12 0.5H28C34.6274 0.5 40 5.87258 40 12.5V28.5C40 35.1274 34.6274 40.5 28 40.5H12C5.37258 40.5 0 35.1274 0 28.5V12.5Z" style="fill: rgb(85, 1, 223);"/>
  <path d="M20 7.16667V25.8333" stroke="white" stroke-width="1.5" stroke-linecap="round" stroke-linejoin="round"/>
  <path d="M16 21.8333L20 25.8333L24 21.8333" stroke="white" stroke-width="1.5" stroke-linecap="round" stroke-linejoin="round"/>
  <path d="M15.2592 16.5H11.7037C10.4 16.5 9.33331 17.5909 9.33331 18.9242V27.4091C9.33331 28.7424 10.4 29.8333 11.7037 29.8333H28.2963C29.6 29.8333 30.6666 28.7424 30.6666 27.4091V18.9242C30.6666 17.5909 29.6 16.5 28.2963 16.5H24.7407" stroke="white" stroke-width="1.5" stroke-linecap="round" stroke-linejoin="round"/>
</svg>