<svg width="43" height="43" viewBox="0 0 43 43" fill="none" xmlns="http://www.w3.org/2000/svg">
<path d="M0 12C0 5.37258 5.37258 0 12 0H31C37.6274 0 43 5.37258 43 12V31C43 37.6274 37.6274 43 31 43H12C5.37258 43 0 37.6274 0 31V12Z" fill="#4902BE"/>
<path d="M21.9445 16.3889C20.8457 16.3889 19.7716 16.7147 18.858 17.3252C17.9443 17.9356 17.2323 18.8033 16.8118 19.8184C16.3913 20.8336 16.2813 21.9506 16.4957 23.0283C16.71 24.106 17.2391 25.0959 18.0161 25.8728C18.793 26.6498 19.783 27.1789 20.8606 27.3933C21.9383 27.6076 23.0553 27.4976 24.0705 27.0771C25.0856 26.6566 25.9533 25.9446 26.5637 25.031C27.1742 24.1173 27.5 23.0432 27.5 21.9445C27.5 20.471 26.9147 19.058 25.8728 18.0161C24.831 16.9742 23.4179 16.3889 21.9445 16.3889Z" stroke="#B6B6B6" stroke-width="2"/>
<path d="M29.1667 13.1863H26.7333L26.2722 12.2098C26.0609 11.8096 25.7566 11.4732 25.3881 11.2323C25.0197 10.9914 24.5993 10.8541 24.1667 10.8333H19.7222C19.2897 10.8541 18.8692 10.9914 18.5008 11.2323C18.1323 11.4732 17.828 11.8096 17.6167 12.2098L17.1556 13.1863H14.7222C13.6908 13.1863 12.7017 13.6201 11.9724 14.3923C11.2431 15.1645 10.8333 16.2119 10.8333 17.3039V26.7157C10.8333 27.8078 11.2431 28.8551 11.9724 29.6273C12.7017 30.3995 13.6908 30.8333 14.7222 30.8333H29.1667C30.1981 30.8333 31.1872 30.3995 31.9165 29.6273C32.6458 28.8551 33.0556 27.8078 33.0556 26.7157V17.3039C33.0556 16.2119 32.6458 15.1645 31.9165 14.3923C31.1872 13.6201 30.1981 13.1863 29.1667 13.1863Z" stroke="#B6B6B6" stroke-width="2"/>
</svg>
