<?xml version="1.0" encoding="utf-8"?>
<svg width="43" height="43" viewBox="0 0 43 43" fill="none" xmlns="http://www.w3.org/2000/svg">
  <path d="M0 12C0 5.37258 5.37258 0 12 0H31C37.6274 0 43 5.37258 43 12V31C43 37.6274 37.6274 43 31 43H12C5.37258 43 0 37.6274 0 31V12Z" style="fill: rgb(73, 2, 190);"/>
  <path d="M 21.5 17.055 C 20.401 17.055 19.327 17.381 18.413 17.991 C 17.5 18.602 16.788 19.469 16.367 20.485 C 15.947 21.5 15.837 22.617 16.051 23.694 C 16.266 24.772 16.795 25.762 17.572 26.539 C 18.349 27.316 19.338 27.845 20.416 28.059 C 21.494 28.274 22.611 28.164 23.626 27.743 C 24.641 27.323 25.509 26.611 26.119 25.697 C 26.73 24.783 27.056 23.709 27.056 22.611 C 27.056 21.137 26.47 19.724 25.428 18.682 C 24.386 17.64 22.973 17.055 21.5 17.055 Z" stroke-width="2" style="stroke: rgb(182, 182, 182);"/>
  <path d="M 28.722 13.852 L 26.289 13.852 L 25.828 12.876 C 25.616 12.476 25.312 12.139 24.944 11.898 C 24.575 11.658 24.155 11.52 23.722 11.5 L 19.278 11.5 C 18.845 11.52 18.425 11.658 18.056 11.898 C 17.688 12.139 17.384 12.476 17.172 12.876 L 16.711 13.852 L 14.278 13.852 C 13.246 13.852 12.257 14.286 11.528 15.058 C 10.799 15.831 10.389 16.878 10.389 17.97 L 10.389 27.382 C 10.389 28.474 10.799 29.521 11.528 30.293 C 12.257 31.066 13.246 31.499 14.278 31.499 L 28.722 31.499 C 29.754 31.499 30.743 31.066 31.472 30.293 C 32.201 29.521 32.611 28.474 32.611 27.382 L 32.611 17.97 C 32.611 16.878 32.201 15.831 31.472 15.058 C 30.743 14.286 29.754 13.852 28.722 13.852 Z" stroke-width="2" style="stroke: rgb(182, 182, 182);"/>
</svg>