<svg width="40" height="41" viewBox="0 0 40 41" fill="none" xmlns="http://www.w3.org/2000/svg">
<path d="M0 12.5C0 5.87258 5.37258 0.5 12 0.5H28C34.6274 0.5 40 5.87258 40 12.5V28.5C40 35.1274 34.6274 40.5 28 40.5H12C5.37258 40.5 0 35.1274 0 28.5V12.5Z" fill="#6100FF"/>
<path d="M20.4444 15.3889C19.3456 15.3889 18.2715 15.7147 17.3579 16.3252C16.4443 16.9356 15.7322 17.8033 15.3118 18.8184C14.8913 19.8336 14.7813 20.9506 14.9956 22.0283C15.21 23.1059 15.7391 24.0958 16.5161 24.8728C17.293 25.6498 18.2829 26.1789 19.3606 26.3932C20.4383 26.6076 21.5553 26.4976 22.5704 26.0771C23.5856 25.6566 24.4532 24.9445 25.0637 24.0309C25.6742 23.1173 26 22.0432 26 20.9444C26 19.471 25.4147 18.0579 24.3728 17.0161C23.3309 15.9742 21.9179 15.3889 20.4444 15.3889Z" stroke="white" stroke-width="1.5"/>
<path d="M27.6666 12.1863H25.2333L24.7722 11.2098C24.5609 10.8096 24.2566 10.4732 23.8881 10.2323C23.5196 9.99142 23.0992 9.8541 22.6666 9.83333H18.2222C17.7896 9.8541 17.3692 9.99142 17.0007 10.2323C16.6323 10.4732 16.328 10.8096 16.1166 11.2098L15.6555 12.1863H13.2222C12.1908 12.1863 11.2017 12.6201 10.4723 13.3923C9.74303 14.1645 9.33331 15.2118 9.33331 16.3039V25.7157C9.33331 26.8078 9.74303 27.8551 10.4723 28.6273C11.2017 29.3995 12.1908 29.8333 13.2222 29.8333H27.6666C28.698 29.8333 29.6872 29.3995 30.4165 28.6273C31.1458 27.8551 31.5555 26.8078 31.5555 25.7157V16.3039C31.5555 15.2118 31.1458 14.1645 30.4165 13.3923C29.6872 12.6201 28.698 12.1863 27.6666 12.1863Z" stroke="white" stroke-width="1.5"/>
</svg>
